<svg width="15" height="14" viewBox="0 0 15 14" fill="none" xmlns="http://www.w3.org/2000/svg">
<g id="Edit icon">
<path id="Icon" d="M2.17785 10.5674C2.20465 10.3262 2.21805 10.2056 2.25455 10.0929C2.28692 9.99289 2.33267 9.89771 2.39053 9.80996C2.45576 9.71104 2.54156 9.62524 2.71317 9.45363L10.4168 1.74997C11.0612 1.10564 12.1058 1.10564 12.7502 1.74997C13.3945 2.39431 13.3945 3.43898 12.7502 4.08331L5.0465 11.787C4.8749 11.9586 4.78909 12.0444 4.69018 12.1096C4.60242 12.1675 4.50725 12.2132 4.40724 12.2456C4.29451 12.2821 4.17391 12.2955 3.93271 12.3223L1.9585 12.5416L2.17785 10.5674Z" stroke="#F4E8D3" stroke-width="1.5" stroke-linecap="round" stroke-linejoin="round"/>
</g>
</svg>
