<svg width="16" height="17" viewBox="0 0 16 17" fill="none" xmlns="http://www.w3.org/2000/svg">
<g id="Popular option icon">
<path id="Vector" fill-rule="evenodd" clip-rule="evenodd" d="M8.07405 1.83806C7.43154 2.30105 6.90837 2.91023 6.54775 3.6153C6.18712 4.32038 5.99939 5.10112 6.00005 5.89306V5.92506C6.00405 6.52506 6.11405 7.10106 6.31105 7.63406C6.47105 8.06206 6.10705 8.54406 5.70105 8.33406C4.94648 7.94218 4.30374 7.36516 3.83305 6.65706C3.63105 6.35306 3.18505 6.29406 2.98505 6.59906C2.32554 7.60314 1.98262 8.78207 2.00068 9.98323C2.01874 11.1844 2.39694 12.3525 3.08634 13.3363C3.77573 14.3201 4.74457 15.0743 5.86742 15.5013C6.99028 15.9282 8.21545 16.0083 9.38434 15.7311C10.5532 15.454 11.612 14.8323 12.4236 13.9466C13.2352 13.061 13.7623 11.9521 13.9365 10.7635C14.1108 9.57488 13.9243 8.36134 13.4011 7.27995C12.8779 6.19856 12.0422 5.29912 11.002 4.69806L10.998 4.69106C9.99408 4.11278 9.22317 3.20253 8.81805 2.11706C8.70205 1.80706 8.34105 1.64606 8.07405 1.83806ZM8.85405 8.01606C9.32568 8.15593 9.7557 8.4096 10.1062 8.75473C10.4568 9.09986 10.7171 9.52588 10.8643 9.99528C11.0115 10.4647 11.0411 10.9631 10.9503 11.4466C10.8596 11.9301 10.6515 12.3839 10.3441 12.768C10.0368 13.1521 9.63978 13.4548 9.18797 13.6494C8.73616 13.844 8.24344 13.9246 7.75318 13.884C7.26292 13.8434 6.79016 13.6829 6.37651 13.4166C5.96286 13.1504 5.62101 12.7865 5.38105 12.3571C5.17605 11.9921 5.59605 11.6631 6.00105 11.7671C6.61425 11.9249 7.25611 11.9352 7.87405 11.7971C8.16205 11.7321 8.28705 11.4111 8.19505 11.1311C8.06525 10.7309 7.99944 10.3128 8.00005 9.89206C8.00005 9.30706 8.12605 8.75206 8.35105 8.25106C8.39194 8.1574 8.46559 8.08186 8.55818 8.0386C8.65078 7.99534 8.75597 7.98733 8.85405 8.01606Z" fill="#C89933"/>
</g>
</svg>
