<svg width="16" height="16" viewBox="0 0 16 16" fill="none" xmlns="http://www.w3.org/2000/svg">
<g id="route" clip-path="url(#clip0_35_11363)">
<path id="Icon" d="M7.66683 3.33337H7.95643C9.98792 3.33337 11.0037 3.33337 11.3893 3.69823C11.7226 4.01362 11.8703 4.47823 11.7803 4.92818C11.6762 5.44872 10.8469 6.03528 9.18835 7.20839L6.47864 9.12502C4.8201 10.2981 3.99082 10.8847 3.88672 11.4052C3.79673 11.8552 3.94444 12.3198 4.27774 12.6352C4.66332 13 5.67907 13 7.71056 13H8.3335M5.3335 3.33337C5.3335 4.43794 4.43807 5.33337 3.3335 5.33337C2.22893 5.33337 1.3335 4.43794 1.3335 3.33337C1.3335 2.2288 2.22893 1.33337 3.3335 1.33337C4.43807 1.33337 5.3335 2.2288 5.3335 3.33337ZM14.6668 12.6667C14.6668 13.7713 13.7714 14.6667 12.6668 14.6667C11.5623 14.6667 10.6668 13.7713 10.6668 12.6667C10.6668 11.5621 11.5623 10.6667 12.6668 10.6667C13.7714 10.6667 14.6668 11.5621 14.6668 12.6667Z" stroke="#F4E8D3" stroke-width="1.5" stroke-linecap="round" stroke-linejoin="round"/>
</g>
<defs>
<clipPath id="clip0_35_11363">
<rect width="16" height="16" fill="white"/>
</clipPath>
</defs>
</svg>
