<svg width="16" height="17" viewBox="0 0 16 17" fill="none" xmlns="http://www.w3.org/2000/svg">
<g id="stars-02" clip-path="url(#clip0_35_11541)">
<path id="Icon" d="M3.00016 15.0598V11.7264M3.00016 5.05977V1.72644M1.3335 3.39311H4.66683M1.3335 13.3931H4.66683M8.66683 2.39311L7.51071 5.39902C7.3227 5.88784 7.2287 6.13225 7.08252 6.33783C6.95296 6.52004 6.79376 6.67923 6.61155 6.80879C6.40597 6.95498 6.16156 7.04898 5.67274 7.23699L2.66683 8.39311L5.67274 9.54923C6.16156 9.73723 6.40597 9.83124 6.61155 9.97742C6.79376 10.107 6.95296 10.2662 7.08252 10.4484C7.2287 10.654 7.3227 10.8984 7.51071 11.3872L8.66683 14.3931L9.82295 11.3872C10.011 10.8984 10.105 10.654 10.2511 10.4484C10.3807 10.2662 10.5399 10.107 10.7221 9.97742C10.9277 9.83124 11.1721 9.73723 11.6609 9.54923L14.6668 8.39311L11.6609 7.23699C11.1721 7.04898 10.9277 6.95498 10.7221 6.80879C10.5399 6.67923 10.3807 6.52004 10.2511 6.33783C10.105 6.13225 10.011 5.88784 9.82295 5.39901L8.66683 2.39311Z" stroke="#F4E8D3" stroke-width="1.5" stroke-linecap="round" stroke-linejoin="round"/>
</g>
<defs>
<clipPath id="clip0_35_11541">
<rect width="16" height="16" fill="white" transform="translate(0 0.393066)"/>
</clipPath>
</defs>
</svg>
