<svg width="25" height="25" viewBox="0 0 25 25" fill="none" xmlns="http://www.w3.org/2000/svg">
<g id="Upload icon">
<path id="Icon" d="M20.5 11.3931V7.69307C20.5 6.01291 20.5 5.17283 20.173 4.53109C19.8854 3.96661 19.4265 3.50767 18.862 3.22005C18.2202 2.89307 17.3802 2.89307 15.7 2.89307H9.3C7.61984 2.89307 6.77976 2.89307 6.13803 3.22005C5.57354 3.50767 5.1146 3.96661 4.82698 4.53109C4.5 5.17283 4.5 6.01291 4.5 7.69307V18.0931C4.5 19.7732 4.5 20.6133 4.82698 21.255C5.1146 21.8195 5.57354 22.2785 6.13803 22.5661C6.77976 22.8931 7.61984 22.8931 9.3 22.8931H12.5M14.5 11.8931H8.5M10.5 15.8931H8.5M16.5 7.89307H8.5M18.5 21.8931V15.8931M15.5 18.8931H21.5" stroke="#F4E8D3" stroke-width="1.5" stroke-linecap="round" stroke-linejoin="round"/>
</g>
</svg>
